<svg width="73" height="72" viewBox="0 0 73 72" fill="none" xmlns="http://www.w3.org/2000/svg">
<rect x="0.62323" width="72" height="72" rx="36" fill="#5256E0"/>
<path d="M37.8614 15.8923C37.8614 15.9183 37.831 15.9443 37.7903 15.9443C37.7547 15.9443 37.6379 16.0433 37.5312 16.1631C37.4296 16.2882 37.2924 16.4497 37.2213 16.533C37.1552 16.6112 37.0993 16.6997 37.0993 16.7258C37.0993 16.757 37.079 16.7779 37.0485 16.7779C37.0231 16.7779 36.9977 16.8143 36.9977 16.856C36.9977 16.8977 36.9825 16.9341 36.9621 16.9341C36.9367 16.9341 36.83 17.08 36.7183 17.2623C36.6065 17.4395 36.4998 17.5905 36.4795 17.601C36.4541 17.6114 36.4388 17.6635 36.4388 17.7208C36.4388 17.7729 36.4185 17.8198 36.388 17.8198C36.3626 17.8198 36.3372 17.8562 36.3372 17.8979C36.3372 17.9396 36.3169 17.976 36.2864 17.976C36.261 17.976 36.2356 18.0125 36.2356 18.0542C36.2356 18.0959 36.2153 18.1323 36.1848 18.1323C36.1594 18.1323 36.134 18.1688 36.134 18.2105C36.134 18.2521 36.1136 18.2886 36.0832 18.2886C36.0578 18.2886 36.0323 18.3355 36.0323 18.3928C36.0323 18.4501 36.012 18.497 35.9815 18.497C35.9561 18.497 35.9307 18.5282 35.9307 18.5647C35.9307 18.6064 35.8494 18.7939 35.7529 18.9815C35.6564 19.169 35.5751 19.3618 35.5751 19.4034C35.5751 19.4503 35.5548 19.4868 35.5243 19.4868C35.4989 19.4868 35.4735 19.5337 35.4735 19.591C35.4735 19.6483 35.4531 19.6952 35.4227 19.6952C35.3972 19.6952 35.3718 19.7316 35.3718 19.7733C35.3718 19.815 35.3566 19.8515 35.3363 19.8515C35.3109 19.8567 34.9755 19.8671 34.5843 19.8775C33.5428 19.914 32.4504 20.0494 31.485 20.2682C31.3478 20.2995 31.1548 20.3411 31.0684 20.3568C30.9769 20.3724 30.9007 20.4037 30.9007 20.4297C30.9007 20.4558 30.8194 20.4766 30.7229 20.4766C30.6264 20.4766 30.5451 20.4974 30.5451 20.5287C30.5451 20.5547 30.479 20.5808 30.3977 20.5808C30.3114 20.5808 30.2301 20.6016 30.2148 20.6329C30.1996 20.6589 30.1335 20.685 30.0675 20.685C30.0065 20.685 29.9354 20.7058 29.91 20.7267C29.8795 20.7527 29.7575 20.8048 29.6305 20.8465C29.5035 20.8829 29.2952 20.9715 29.1631 21.034C29.031 21.0965 28.8328 21.1799 28.716 21.2163C28.6042 21.2528 28.5127 21.2997 28.5127 21.3205C28.5127 21.3466 28.467 21.3622 28.4111 21.3622C28.3552 21.3622 28.3095 21.383 28.3095 21.4143C28.3095 21.4404 28.2638 21.4664 28.2079 21.4664C28.152 21.4664 28.1063 21.4872 28.1063 21.5081C28.1063 21.5341 28.025 21.581 27.9285 21.6227C27.8319 21.6644 27.7506 21.7112 27.7506 21.7373C27.7506 21.7581 27.7049 21.779 27.649 21.779C27.5931 21.779 27.5474 21.7998 27.5474 21.8311C27.5474 21.8571 27.522 21.8832 27.4915 21.8832C27.4255 21.8832 26.8158 22.2582 26.7954 22.3103C26.7853 22.3364 26.7395 22.352 26.6989 22.352C26.6532 22.352 26.582 22.3937 26.5363 22.4458C26.4906 22.4927 26.394 22.5656 26.3178 22.6073C26.2365 22.649 26.1756 22.701 26.1756 22.7271C26.1756 22.7479 26.1502 22.7688 26.1197 22.7688C26.0892 22.7688 26.0333 22.8 25.9977 22.8313C25.886 22.9355 25.8098 22.998 25.6167 23.1334C25.5201 23.2012 25.4033 23.3001 25.3576 23.3522C25.3118 23.4043 25.261 23.446 25.2407 23.446C25.1594 23.446 23.7825 24.8682 23.559 25.186C23.5031 25.2693 23.3964 25.4048 23.3151 25.4881C23.2389 25.5767 23.1372 25.7121 23.0915 25.7955C22.9848 25.9778 22.8934 25.983 22.4869 25.8424C22.3243 25.7851 22.1363 25.7382 22.0754 25.7382C22.0093 25.7382 21.9585 25.7173 21.9585 25.6913C21.9585 25.6652 21.8823 25.634 21.7959 25.6184C21.7045 25.6027 21.5165 25.5611 21.3742 25.5298C21.237 25.4985 21.0287 25.4569 20.9169 25.4464C20.8052 25.4308 20.668 25.3996 20.6121 25.3735C20.4597 25.3006 20.038 25.2641 19.1437 25.2381C17.9802 25.2016 17.8583 25.2797 17.9142 26.0299C17.9548 26.5977 17.9955 26.8791 18.0514 26.9155C18.0768 26.9311 18.0971 27.0249 18.0971 27.1239C18.0971 27.2229 18.1225 27.301 18.1479 27.301C18.1784 27.301 18.1987 27.3583 18.1987 27.4313C18.1987 27.5042 18.2241 27.5615 18.2495 27.5615C18.28 27.5615 18.3003 27.6084 18.3003 27.6657C18.3003 27.723 18.346 27.848 18.4019 27.9522C18.4578 28.0564 18.5035 28.171 18.5035 28.2075C18.5035 28.2491 18.5188 28.2908 18.5442 28.3012C18.5645 28.3064 18.6458 28.4575 18.7322 28.6294C18.8135 28.8013 18.8948 28.9524 18.91 28.9681C18.9253 28.9837 18.9659 29.0566 19.0066 29.1348C19.0472 29.2181 19.098 29.2806 19.1234 29.2806C19.1437 29.2806 19.1641 29.3119 19.1641 29.3483C19.1641 29.3848 19.2047 29.463 19.2555 29.5203C19.3012 29.5724 19.4079 29.713 19.4943 29.8276C19.5756 29.9422 19.6975 30.0933 19.7585 30.1662C19.8246 30.2392 19.8754 30.3121 19.8754 30.3329C19.8754 30.3538 19.9313 30.4267 20.0024 30.4996C20.1345 30.6351 20.165 30.7601 20.0786 30.8174C20.0532 30.833 20.0278 30.9424 20.0278 31.0571C20.0278 31.1665 20.0075 31.2602 19.9821 31.2602C19.9567 31.2602 19.9262 31.3696 19.9059 31.5051C19.8906 31.6457 19.855 31.8854 19.8246 32.0416C19.6061 33.2607 19.6061 35.0736 19.8246 36.2092C19.855 36.3655 19.8957 36.5843 19.9109 36.6937C19.9262 36.7979 19.9567 36.9021 19.9821 36.9177C20.0075 36.9334 20.0278 37.0271 20.0278 37.1261C20.0278 37.2251 20.0532 37.3032 20.0786 37.3032C20.1091 37.3032 20.1294 37.3866 20.1294 37.4856C20.1294 37.5845 20.1548 37.6679 20.1802 37.6679C20.2107 37.6679 20.231 37.7356 20.231 37.8242C20.231 37.9075 20.2564 37.9805 20.2818 37.9805C20.3123 37.9805 20.3326 38.0273 20.3326 38.0794C20.3326 38.1367 20.358 38.1993 20.3834 38.2149C20.4139 38.2305 20.4343 38.2826 20.4343 38.3191C20.4343 38.4649 21.0846 39.8559 21.1507 39.8559C21.1761 39.8559 21.1964 39.9028 21.1964 39.9601C21.1964 40.0174 21.2218 40.0643 21.2472 40.0643C21.2777 40.0643 21.298 40.0903 21.298 40.1163C21.298 40.1789 21.5622 40.606 21.6181 40.6269C21.6384 40.6373 21.6537 40.6738 21.6537 40.7102C21.6537 40.7467 21.6943 40.8196 21.7451 40.8769C21.7959 40.929 21.8925 41.0593 21.9585 41.1582C22.1414 41.4291 22.2176 41.5177 22.4361 41.7365C22.6292 41.9397 22.7206 41.9866 22.7206 41.8876C22.7206 41.8563 22.8121 41.8355 22.9239 41.8355C23.0356 41.8355 23.1271 41.8094 23.1271 41.7834C23.1271 41.7521 23.1931 41.7313 23.2744 41.7313C23.3608 41.7313 23.4421 41.7052 23.4573 41.6792C23.4726 41.6479 23.5336 41.6271 23.5894 41.6271C23.6402 41.6271 23.7266 41.6063 23.7774 41.5802C23.8232 41.5542 24.001 41.4812 24.1687 41.4187C24.5802 41.2676 25.0781 41.0384 25.0984 40.9863C25.1086 40.9655 25.1594 40.9499 25.2153 40.9499C25.2661 40.9499 25.3118 40.9238 25.3118 40.8978C25.3118 40.8665 25.3576 40.8457 25.4135 40.8457C25.4693 40.8457 25.5151 40.8196 25.5151 40.7936C25.5151 40.7623 25.5608 40.7415 25.6167 40.7415C25.6726 40.7415 25.7183 40.7206 25.7183 40.6998C25.7183 40.6738 25.7996 40.6269 25.8961 40.5852C26.0892 40.5071 26.1349 40.3768 25.9723 40.3768C25.8656 40.3768 25.195 40.0643 25.1696 40.0017C25.1594 39.9809 25.1188 39.9601 25.0781 39.9601C25.0375 39.9601 25.007 39.934 25.007 39.908C25.007 39.8767 24.9714 39.8559 24.9308 39.8559C24.8901 39.8559 24.8546 39.835 24.8546 39.8142C24.8546 39.7881 24.7987 39.7413 24.7275 39.71C24.5853 39.6423 24.57 39.6319 24.2703 39.3558C24.1585 39.2568 24.0061 39.1213 23.9299 39.0588C23.8536 38.9963 23.7876 38.9182 23.7876 38.8817C23.7876 38.8504 23.7673 38.814 23.7469 38.8036C23.7266 38.7931 23.6301 38.6837 23.5336 38.5535C23.437 38.4285 23.3303 38.293 23.2998 38.2618C23.2694 38.2253 23.2135 38.1263 23.1779 38.0378C23.1423 37.9492 23.0966 37.8763 23.0712 37.8763C23.0458 37.8763 23.0255 37.8294 23.0255 37.7721C23.0255 37.7148 23.0051 37.6679 22.9747 37.6679C22.9493 37.6679 22.9239 37.6314 22.9239 37.5897C22.9239 37.5481 22.9035 37.5116 22.873 37.5116C22.8476 37.5116 22.8222 37.4647 22.8222 37.4126C22.8222 37.3553 22.8019 37.2928 22.7714 37.2772C22.746 37.2616 22.7206 37.1886 22.7206 37.1157C22.7206 37.048 22.7003 36.9907 22.6749 36.9907C22.6495 36.9907 22.619 36.9386 22.6038 36.8708C22.5885 36.8083 22.5479 36.6625 22.5174 36.5479C22.3345 35.8706 22.304 35.631 22.304 34.8027C22.304 34.1463 22.3243 33.865 22.3904 33.6045C22.4361 33.417 22.4869 33.1877 22.5021 33.094C22.5174 33.0054 22.5479 32.9273 22.5733 32.9273C22.5987 32.9273 22.619 32.8804 22.619 32.8231C22.619 32.7189 22.6393 32.672 22.7613 32.4219C22.7968 32.3542 22.8222 32.2657 22.8222 32.224C22.8222 32.1823 22.8476 32.1458 22.873 32.1458C22.9035 32.1458 22.9239 32.125 22.9239 32.0937C22.9239 32.0156 23.371 31.3175 23.5132 31.1717C23.5793 31.1039 23.6352 31.0258 23.6352 30.9945C23.6352 30.9372 24.0874 30.4788 24.3465 30.2808C24.443 30.2027 24.57 30.0985 24.6208 30.0464C24.6767 29.9995 24.7529 29.9579 24.7885 29.9579C24.8241 29.9579 24.8546 29.937 24.8546 29.9162C24.8546 29.8589 25.5354 29.489 25.637 29.489C25.6827 29.489 25.7183 29.4734 25.7183 29.4473C25.7183 29.4056 26.079 29.2806 26.201 29.2806C26.2416 29.2806 26.2772 29.2546 26.2772 29.2285C26.2772 29.1973 26.3788 29.1764 26.5007 29.1764C26.6278 29.1764 26.7446 29.1504 26.7599 29.1243C26.7802 29.0931 27.1663 29.0722 27.7557 29.0722C28.3603 29.0722 28.716 29.0931 28.716 29.1243C28.716 29.1504 28.8278 29.1764 28.9649 29.1764C29.1072 29.1764 29.2342 29.1973 29.2495 29.2285C29.2647 29.2546 29.3358 29.2806 29.407 29.2806C29.473 29.2806 29.5746 29.3015 29.6305 29.3327C29.6864 29.3588 29.7779 29.4056 29.8338 29.4369C29.8896 29.463 29.9709 29.489 30.0167 29.489C30.1081 29.489 30.8144 29.8537 30.8398 29.9162C30.8499 29.9422 30.8906 29.9579 30.9312 29.9579C30.9719 29.9579 31.0023 29.9787 31.0023 30.0099C31.0023 30.036 31.0379 30.062 31.0786 30.062C31.1192 30.062 31.1548 30.0829 31.1548 30.1141C31.1548 30.1402 31.1802 30.1662 31.2107 30.1662C31.2462 30.1662 31.3072 30.2079 31.3529 30.26C31.3986 30.3121 31.5155 30.4111 31.612 30.4788C31.7086 30.5517 31.8458 30.6611 31.9169 30.7236L32.0388 30.8383L32.2725 30.7028C32.3996 30.6299 32.5622 30.5361 32.6384 30.4944C32.7146 30.4528 32.7959 30.3902 32.8162 30.359C32.8365 30.3225 32.8467 30.0725 32.8416 29.8016C32.8314 29.3744 32.867 29.0618 33.0194 28.145C33.0347 28.0512 33.0652 27.9626 33.0906 27.947C33.116 27.9314 33.1363 27.8532 33.1363 27.7647C33.1363 27.6813 33.1617 27.6136 33.1871 27.6136C33.2176 27.6136 33.2379 27.5667 33.2379 27.5146C33.2379 27.4573 33.2633 27.3948 33.2887 27.3792C33.3192 27.3635 33.3395 27.2906 33.3395 27.2229C33.3395 27.1552 33.3548 27.0926 33.3802 27.0822C33.4005 27.0718 33.4665 26.9728 33.5224 26.8582C33.7765 26.3737 33.9238 26.1237 34.0102 26.0455C34.061 25.9986 34.1016 25.9413 34.1016 25.9153C34.1016 25.8892 34.1474 25.8319 34.2033 25.7903C34.2591 25.7486 34.3049 25.6965 34.3049 25.6757C34.3049 25.6236 35.067 24.8526 35.1178 24.8526C35.1432 24.8526 35.194 24.8213 35.2296 24.7848C35.3363 24.6806 35.7224 24.4358 35.7783 24.4358C35.8037 24.4358 35.8291 24.4098 35.8291 24.3837C35.8291 24.3525 35.8748 24.3316 35.9307 24.3316C35.9866 24.3316 36.0323 24.3056 36.0323 24.2795C36.0323 24.2483 36.0781 24.2274 36.134 24.2274C36.1899 24.2274 36.2356 24.2014 36.2356 24.1753C36.2356 24.1441 36.2813 24.1232 36.3372 24.1232C36.3931 24.1232 36.4388 24.0972 36.4388 24.0711C36.4388 24.0399 36.4845 24.019 36.5404 24.019C36.5963 24.019 36.6827 23.9982 36.7335 23.9722C37.0485 23.8002 37.9072 23.6544 38.5982 23.6544C39.2891 23.6544 40.1478 23.8002 40.4628 23.9722C40.5136 23.9982 40.6 24.019 40.6559 24.019C40.7118 24.019 40.7575 24.0399 40.7575 24.0711C40.7575 24.0972 40.8032 24.1232 40.8591 24.1232C40.915 24.1232 40.9607 24.1441 40.9607 24.1753C40.9607 24.2014 41.0065 24.2274 41.0624 24.2274C41.1182 24.2274 41.164 24.2483 41.164 24.2795C41.164 24.3056 41.2097 24.3316 41.2656 24.3316C41.3215 24.3316 41.3672 24.3525 41.3672 24.3733C41.3672 24.3993 41.4485 24.4462 41.545 24.4879C41.6416 24.5296 41.7229 24.5765 41.7229 24.5921C41.7229 24.6129 41.7787 24.6546 41.8448 24.6859C42.0023 24.7588 42.1751 24.9099 42.5307 25.2797C42.8864 25.6496 43.0947 25.8892 43.0947 25.9257C43.0947 25.9413 43.1506 26.0143 43.2217 26.0872C43.2877 26.1654 43.369 26.2956 43.4046 26.3737C43.4351 26.4519 43.4808 26.5196 43.4961 26.5196C43.5164 26.5196 43.5621 26.6029 43.6028 26.7019C43.6434 26.8009 43.6891 26.8843 43.7145 26.8843C43.7349 26.8843 43.7552 26.9311 43.7552 26.9884C43.7552 27.0458 43.7806 27.0926 43.806 27.0926C43.8365 27.0926 43.8568 27.1291 43.8568 27.1708C43.8568 27.2125 43.8974 27.3479 43.9533 27.4729C44.0041 27.5927 44.0753 27.7959 44.1108 27.9262C44.1413 28.0564 44.1972 28.2544 44.2277 28.369C44.3141 28.6607 44.309 30.6924 44.2277 30.9841C44.1921 31.1092 44.1362 31.3071 44.1058 31.4269C44.0753 31.552 44.0295 31.6926 44.0041 31.7395C43.9787 31.7916 43.9584 31.8802 43.9584 31.9375C43.9584 31.9948 43.9381 32.0416 43.9076 32.0416C43.8822 32.0416 43.8568 32.0885 43.8568 32.1458C43.8568 32.2031 43.8365 32.25 43.806 32.25C43.7806 32.25 43.7552 32.2969 43.7552 32.3542C43.7552 32.4115 43.7349 32.4584 43.7044 32.4584C43.679 32.4584 43.6536 32.5001 43.6536 32.547C43.6536 32.5991 43.6078 32.698 43.552 32.771C43.4961 32.8439 43.4503 32.9325 43.4503 32.9637C43.4503 33.0002 43.4351 33.0314 43.4097 33.0314C43.3894 33.0314 43.3284 33.1148 43.2725 33.2138C43.2217 33.318 43.115 33.469 43.0337 33.5524C42.9575 33.641 42.8914 33.7243 42.8914 33.7399C42.8914 33.7556 42.8254 33.8389 42.739 33.9171C42.6577 33.9952 42.5866 34.0994 42.5866 34.1411C42.5866 34.1827 42.6577 34.2869 42.739 34.3755C42.8254 34.4693 42.8914 34.563 42.8914 34.5943C42.8914 34.6203 42.9168 34.6464 42.9423 34.6464C42.9727 34.6464 42.9931 34.6829 42.9931 34.7245C42.9931 34.7662 43.0185 34.8027 43.0439 34.8027C43.0744 34.8027 43.0947 34.8496 43.0947 34.9069C43.0947 34.9642 43.1099 35.0111 43.1353 35.0111C43.1861 35.0111 43.2928 35.3809 43.3538 35.7404C43.43 36.2144 43.2623 37.2095 43.0439 37.6262C43.0134 37.6783 42.9931 37.7565 42.9931 37.7981C42.9931 37.8398 42.9727 37.8763 42.9423 37.8763C42.9168 37.8763 42.8914 37.9232 42.8914 37.9805C42.8914 38.0378 42.8711 38.0846 42.8406 38.0846C42.8152 38.0846 42.7898 38.1315 42.7898 38.1836C42.7898 38.2409 42.7644 38.293 42.7289 38.3034C42.6425 38.3347 42.6628 38.6889 42.7543 38.7879C42.8 38.8296 42.8508 38.913 42.866 38.9703C42.8813 39.0276 42.9219 39.0745 42.9473 39.0745C42.9727 39.0745 42.9931 39.1213 42.9931 39.1734C42.9931 39.2307 43.0134 39.2828 43.0337 39.2932C43.0896 39.3141 43.364 39.934 43.4757 40.2726C43.5215 40.4289 43.5824 40.6008 43.6078 40.6477C43.6332 40.6998 43.6536 40.8092 43.6536 40.8926C43.6536 40.9811 43.679 41.0645 43.7044 41.0801C43.7349 41.0957 43.7552 41.2364 43.7552 41.3927C43.7552 41.549 43.7806 41.6896 43.806 41.7052C43.8365 41.7261 43.8568 42.122 43.8568 42.7211C43.8568 43.3202 43.8365 43.7161 43.806 43.7369C43.7806 43.7526 43.7552 43.8828 43.7552 44.0235C43.7552 44.1641 43.7349 44.2944 43.7044 44.31C43.679 44.3256 43.6536 44.4194 43.6536 44.5184C43.6536 44.6173 43.6332 44.7111 43.6028 44.7267C43.5774 44.7424 43.552 44.8049 43.552 44.8622C43.552 44.9143 43.5316 45.0028 43.5062 45.0549C43.3995 45.2737 43.2979 45.5446 43.2979 45.6124C43.2979 45.654 43.2776 45.6905 43.2471 45.6905C43.2217 45.6905 43.1963 45.7218 43.1963 45.7582C43.1963 45.852 43.0744 46.1073 43.0337 46.1073C43.0083 46.1073 42.9931 46.1541 42.9931 46.2114C42.9931 46.2687 42.9727 46.3156 42.9423 46.3156C42.9168 46.3156 42.8914 46.3521 42.8914 46.3938C42.8914 46.4354 42.8711 46.4719 42.8406 46.4719C42.8152 46.4719 42.7898 46.5136 42.7898 46.5657C42.7898 46.6178 42.7441 46.6907 42.6882 46.7324C42.6323 46.7741 42.5866 46.8314 42.5866 46.8574C42.5866 47.0085 41.6111 48.1025 41.1894 48.4255C41.0776 48.5088 40.9506 48.6234 40.9048 48.6703C40.8591 48.7224 40.7982 48.7641 40.7727 48.7641C40.7473 48.7641 40.6813 48.8058 40.6254 48.8579C40.5746 48.9047 40.4628 48.9829 40.3764 49.0246C40.2952 49.0662 40.2139 49.1183 40.1986 49.134C40.1529 49.1965 39.848 49.3371 39.7667 49.3371C39.7261 49.3371 39.6905 49.358 39.6905 49.3892C39.6905 49.4153 39.6448 49.4413 39.594 49.4413C39.5381 49.4413 39.4771 49.4622 39.4619 49.4934C39.4467 49.5195 39.3857 49.5455 39.3298 49.5455C39.279 49.5455 39.2333 49.5663 39.2333 49.5976C39.2333 49.6237 39.1672 49.6497 39.0808 49.6497C38.9995 49.6497 38.9284 49.6705 38.9284 49.7018C38.9284 49.7278 38.8624 49.7539 38.7811 49.7539C38.6947 49.7539 38.6134 49.7799 38.5982 49.806C38.5829 49.832 38.4915 49.8581 38.3949 49.8581C38.2984 49.8581 38.212 49.8789 38.1968 49.905C38.1409 49.9883 37.5617 50.0352 36.4642 50.0352C35.7427 50.0404 35.2296 50.0144 35.0162 49.9727C34.8333 49.9362 34.5996 49.8893 34.4929 49.8737C34.3912 49.8581 34.2896 49.8268 34.2744 49.8008C34.2591 49.7747 34.1829 49.7539 34.0966 49.7539C34.0153 49.7539 33.9492 49.7278 33.9492 49.7018C33.9492 49.6705 33.8832 49.6497 33.7968 49.6497C33.7155 49.6497 33.6444 49.6237 33.6444 49.5976C33.6444 49.5663 33.6088 49.5455 33.5682 49.5455C33.5224 49.5455 33.2684 49.4413 32.9991 49.3111C32.7349 49.1808 32.4961 49.0767 32.4758 49.0767C32.4555 49.0767 32.2167 49.1808 31.9525 49.3111C31.6832 49.4413 31.4291 49.5455 31.3834 49.5455C31.3428 49.5455 31.3072 49.5663 31.3072 49.5976C31.3072 49.6237 31.2615 49.6497 31.2056 49.6497C31.1497 49.6497 31.0582 49.6705 31.0023 49.7018C30.9465 49.7278 30.855 49.7747 30.7991 49.806C30.7432 49.832 30.6569 49.8581 30.606 49.8581C30.5552 49.8581 30.4943 49.8789 30.4689 49.8998C30.4384 49.9258 30.3164 49.9727 30.1894 50.0092C30.0624 50.0508 29.9049 50.0977 29.8338 50.1238C29.7626 50.1446 29.534 50.2071 29.3257 50.2488C29.1174 50.2957 28.8633 50.3582 28.7617 50.3842C28.6601 50.4103 28.5178 50.4311 28.4416 50.4311C28.3705 50.4311 28.3095 50.4415 28.3095 50.4572C28.3095 50.4988 28.5534 50.7437 28.589 50.7437C28.6093 50.7437 28.7668 50.8479 28.9395 50.9781C29.1174 51.1084 29.285 51.2125 29.3104 51.2125C29.3358 51.2125 29.3866 51.2594 29.4273 51.3167C29.4679 51.374 29.5391 51.4209 29.5899 51.4209C29.7118 51.4209 29.7067 51.5876 29.5797 51.6814C29.5238 51.7231 29.4781 51.796 29.4781 51.8429C29.4781 51.895 29.4578 51.9419 29.4375 51.9523C29.4121 51.9627 29.3054 52.1086 29.1987 52.2805C29.0869 52.4524 28.97 52.6243 28.9345 52.6608C28.904 52.692 28.8582 52.7702 28.843 52.8275C28.8278 52.8848 28.7871 52.9317 28.7617 52.9317C28.7363 52.9317 28.716 52.9681 28.716 53.0098C28.716 53.0515 28.6957 53.088 28.6652 53.088C28.6398 53.088 28.6144 53.1348 28.6144 53.1921C28.6144 53.2495 28.594 53.2963 28.5636 53.2963C28.5382 53.2963 28.5127 53.3432 28.5127 53.4005C28.5127 53.4578 28.4924 53.5047 28.467 53.5047C28.4467 53.5047 28.3654 53.6506 28.2892 53.8277C28.213 54.01 28.1317 54.2028 28.1063 54.2601C27.8573 54.8488 27.7964 55.2864 27.9234 55.5937C28.0402 55.8855 28.1825 55.9792 28.4823 55.974C28.7312 55.974 29.2749 55.8125 29.2749 55.7396C29.2749 55.7187 29.346 55.6771 29.4273 55.6406C29.5137 55.6041 29.5797 55.5573 29.5797 55.5312C29.5797 55.5052 29.6153 55.4843 29.6559 55.4843C29.6966 55.4843 29.7321 55.4583 29.7321 55.4322C29.7321 55.401 29.7575 55.3801 29.788 55.3801C29.8236 55.3801 29.8846 55.3385 29.9303 55.2864C29.976 55.2343 30.0878 55.1405 30.1793 55.0728L30.3418 54.9582V55.1665C30.3418 55.2812 30.3672 55.3906 30.3926 55.4062C30.4231 55.4218 30.4435 55.5052 30.4435 55.5937C30.4435 55.6771 30.4587 55.7448 30.4841 55.7448C30.5044 55.7448 30.5502 55.8125 30.5857 55.8907C30.6213 55.974 30.7077 56.0678 30.7788 56.099C30.9312 56.172 31.4088 56.1824 31.4088 56.1147C31.4088 56.0886 31.4495 56.0522 31.5003 56.0365C31.612 56.0001 32.2725 55.3385 32.2725 55.2655C32.2725 55.2343 32.3132 55.1718 32.364 55.1249C32.4758 55.0259 33.0347 54.2028 33.0347 54.1455C33.0347 54.1194 33.0804 54.0673 33.1363 54.0257C33.1922 53.984 33.2379 53.9215 33.2379 53.885C33.2379 53.8485 33.2582 53.8173 33.2785 53.8173C33.304 53.8173 33.3548 53.7548 33.3954 53.6714C33.4361 53.5933 33.4869 53.5047 33.5072 53.4787C33.5275 53.4474 33.619 53.3224 33.7053 53.1974C33.8527 52.9838 33.873 52.9734 34.0458 53.0098C34.6809 53.1296 35.8901 53.2547 36.515 53.2651C37.2009 53.2703 38.5423 53.1296 39.2739 52.9681C39.5432 52.9056 39.6042 52.9056 39.6905 52.9681C39.7464 53.0098 39.7921 53.0723 39.7921 53.1036C39.7921 53.1401 39.8379 53.2026 39.8938 53.2442C39.9497 53.2859 39.9954 53.3536 39.9954 53.3953C39.9954 53.4318 40.036 53.5047 40.0868 53.5516C40.1326 53.5985 40.2037 53.6975 40.2443 53.7756C40.285 53.859 40.3358 53.9215 40.3612 53.9215C40.3815 53.9215 40.4018 53.9579 40.4018 53.9996C40.4018 54.0413 40.4171 54.0778 40.4425 54.0778C40.4628 54.0778 40.5238 54.1663 40.5797 54.2757C40.6356 54.3799 40.7219 54.5049 40.7677 54.5518C40.8185 54.5987 40.8591 54.6612 40.8591 54.6977C40.8591 54.7289 40.8845 54.755 40.9099 54.755C40.9404 54.755 40.9607 54.7863 40.9607 54.8227C40.9607 54.8592 41.0065 54.9217 41.0624 54.9634C41.1182 55.005 41.164 55.0571 41.164 55.0832C41.164 55.104 41.2148 55.177 41.2808 55.2447C41.4028 55.3749 41.7635 55.8021 41.8143 55.8802C41.9566 56.0886 42.5459 56.2449 42.7035 56.1095C43.0337 55.8229 43.0744 55.75 43.1556 55.302C43.1912 55.1144 43.2319 54.9634 43.2522 54.9634C43.2725 54.9634 43.3792 55.0571 43.4961 55.1718C43.6078 55.2864 43.7196 55.3801 43.745 55.3801C43.7653 55.3801 43.8619 55.4531 43.9584 55.5364C44.2683 55.8125 44.6037 55.9532 44.9441 55.9532C45.2794 55.9532 45.5843 55.8177 45.5843 55.6667C45.5843 55.625 45.6097 55.5885 45.6351 55.5885C45.6656 55.5885 45.6859 55.4218 45.6859 55.1978C45.6859 54.9738 45.6656 54.8071 45.6351 54.8071C45.6097 54.8071 45.5843 54.7342 45.5843 54.6508C45.5843 54.5622 45.564 54.4945 45.5335 54.4945C45.5081 54.4945 45.4827 54.4633 45.4827 54.4216C45.4827 54.3799 45.4014 54.1872 45.2997 53.9892C45.1981 53.7964 45.0457 53.4943 44.9593 53.3224C44.8679 53.1505 44.7815 52.9994 44.7612 52.9942C44.7358 52.9838 44.7205 52.9421 44.7205 52.9004C44.7205 52.8587 44.7002 52.8275 44.6697 52.8275C44.6443 52.8275 44.6189 52.7962 44.6189 52.7598C44.6189 52.7285 44.5732 52.6399 44.5173 52.567C44.4614 52.4941 44.3293 52.3065 44.2277 52.1503C44.1261 51.994 44.0092 51.8325 43.9737 51.796C43.9381 51.7595 43.9076 51.7074 43.9076 51.6814C43.9076 51.6554 43.8568 51.5824 43.7958 51.5147C43.7298 51.447 43.6485 51.3324 43.6078 51.2542C43.5265 51.0979 43.5469 51.0719 43.8568 50.8479C43.9533 50.7802 44.0702 50.6812 44.1159 50.6291C44.1616 50.577 44.2125 50.5353 44.2277 50.5353C44.2734 50.5353 44.6494 50.1759 45.2693 49.5403C45.8332 48.9673 45.8993 48.8943 46.194 48.5036C46.4785 48.1337 46.5191 48.0816 46.6411 47.9514C46.7021 47.8837 46.7529 47.8055 46.7529 47.7743C46.7529 47.743 46.7986 47.6649 46.8596 47.6024C46.9154 47.5399 47.0221 47.3784 47.0984 47.2429C47.1746 47.1023 47.2508 46.9929 47.2762 46.9929C47.2965 46.9929 47.3118 46.9512 47.3118 46.8991C47.3118 46.847 47.3575 46.7741 47.4134 46.7324C47.4693 46.6907 47.515 46.6178 47.515 46.5657C47.515 46.5136 47.5404 46.4719 47.5658 46.4719C47.5963 46.4719 47.6166 46.425 47.6166 46.3677C47.6166 46.3104 47.6318 46.2635 47.6572 46.2635C47.6776 46.2635 47.7233 46.1854 47.7639 46.0916C47.8554 45.8885 48.272 44.9716 48.333 44.8466C48.3584 44.7945 48.3787 44.7163 48.3787 44.6746C48.3787 44.633 48.4041 44.5965 48.4295 44.5965C48.46 44.5965 48.4803 44.5392 48.4803 44.4715C48.4803 44.3985 48.5057 44.3256 48.5311 44.31C48.5616 44.2944 48.582 44.2214 48.582 44.1485C48.582 44.0808 48.6074 44.0235 48.6328 44.0235C48.6632 44.0235 48.6836 43.9714 48.6836 43.9036C48.6836 43.8411 48.7191 43.6848 48.7649 43.5598C48.8411 43.3306 48.963 42.8096 49.0494 42.3304C49.1561 41.7209 49.1967 41.351 49.2221 40.6738C49.2475 40.0434 49.2425 39.9601 49.1713 39.9601C49.1256 39.9601 49.09 39.9809 49.09 40.0122C49.09 40.0382 49.0545 40.0643 49.0138 40.0643C48.9732 40.0643 48.9376 40.0851 48.9376 40.1163C48.9376 40.1424 48.902 40.1684 48.8614 40.1684C48.8208 40.1684 48.7852 40.1893 48.7852 40.2101C48.7852 40.2362 48.7242 40.2831 48.648 40.3195C48.5667 40.356 48.3533 40.4914 48.1653 40.6165C47.9773 40.7415 47.8046 40.8457 47.7843 40.8457C47.7589 40.8457 47.7081 40.8926 47.6674 40.9499C47.6268 41.0072 47.5556 41.0541 47.5048 41.0541C47.454 41.0541 47.4134 41.0749 47.4134 41.1061C47.4134 41.1322 47.3778 41.1582 47.3372 41.1582C47.2965 41.1582 47.2609 41.1791 47.2609 41.2103C47.2609 41.2364 47.2305 41.2624 47.1898 41.2624C47.0933 41.2624 46.7884 40.1216 46.8646 40.0278C46.8951 39.9913 46.951 39.9601 46.9866 39.9601C47.0272 39.9601 47.0577 39.934 47.0577 39.908C47.0577 39.8767 47.0933 39.8559 47.1339 39.8559C47.1746 39.8559 47.2101 39.835 47.2101 39.8142C47.2101 39.7881 47.2711 39.7361 47.3524 39.6944C47.4286 39.6527 47.4997 39.611 47.515 39.5954C47.5302 39.5798 47.6776 39.4756 47.8452 39.361C48.0129 39.2464 48.1857 39.1109 48.2314 39.0588C48.2771 39.0119 48.3381 38.9703 48.3736 38.9703C48.4041 38.9703 48.4905 38.913 48.5667 38.84C48.648 38.7723 48.8716 38.59 49.0646 38.4389C49.2628 38.2878 49.466 38.1263 49.5168 38.0742C49.5727 38.0221 49.6388 37.9805 49.6591 37.9805C49.6845 37.9805 49.781 37.9023 49.8725 37.8085C49.9639 37.72 50.1011 37.595 50.1722 37.5324C50.6295 37.173 52.108 35.6935 52.672 35.0371C52.8397 34.8444 53.0531 34.6047 53.1445 34.5109C53.2309 34.4172 53.3071 34.3234 53.3071 34.3078C53.3071 34.2921 53.3833 34.1984 53.4748 34.1046C53.5611 34.0056 53.6882 33.8598 53.7491 33.7816C53.8101 33.6983 53.932 33.5472 54.0184 33.4482C54.0997 33.3492 54.1708 33.245 54.1708 33.2242C54.1708 33.1982 54.2369 33.1148 54.3131 33.0419C54.3893 32.9637 54.5062 32.8179 54.5621 32.7189C54.623 32.6147 54.7145 32.4845 54.7653 32.4219C54.999 32.1406 55.0346 32.0885 55.0346 32.0521C55.0346 32.0312 55.0905 31.9479 55.1616 31.8645C55.2277 31.7812 55.3598 31.5936 55.4512 31.4478C55.5427 31.3019 55.6443 31.1508 55.6798 31.1144C55.7103 31.0831 55.7561 31.005 55.7713 30.9477C55.7865 30.8904 55.8272 30.8435 55.8526 30.8435C55.878 30.8435 55.8983 30.8174 55.8983 30.7862C55.8983 30.7549 55.9695 30.6299 56.0507 30.5049C56.1371 30.3798 56.2032 30.2548 56.2032 30.2287C56.2032 30.1975 56.2235 30.1662 56.2438 30.1558C56.2895 30.135 56.7621 29.2858 56.7621 29.2233C56.7621 29.1973 56.7875 29.1764 56.8129 29.1764C56.8434 29.1764 56.8637 29.1295 56.8637 29.0722C56.8637 29.0149 56.8891 28.9681 56.9145 28.9681C56.945 28.9681 56.9653 28.9212 56.9653 28.8639C56.9653 28.8066 56.9907 28.7597 57.0161 28.7597C57.0466 28.7597 57.0669 28.7128 57.0669 28.6607C57.0669 28.6034 57.0822 28.5513 57.1076 28.5409C57.1279 28.5305 57.2549 28.2804 57.387 27.9783C57.5191 27.6761 57.6512 27.3896 57.6817 27.3427C57.7071 27.2906 57.7274 27.2125 57.7274 27.1708C57.7274 27.1291 57.7528 27.0926 57.7782 27.0926C57.8087 27.0926 57.829 27.0353 57.829 26.9676C57.829 26.8947 57.8544 26.8217 57.8798 26.8061C57.9103 26.7905 57.9306 26.7176 57.9306 26.6446C57.9306 26.5769 57.956 26.5196 57.9815 26.5196C58.0119 26.5196 58.0323 26.4467 58.0323 26.3633C58.0323 26.2748 58.0526 26.207 58.078 26.207C58.1796 26.207 58.2761 25.1651 58.1898 24.9724C58.1593 24.9099 58.1034 24.79 58.0729 24.7067C57.9916 24.5296 57.6614 24.1962 57.453 24.0868C57.3565 24.0347 57.1634 24.0034 56.9348 23.9982C56.6198 23.9982 56.5283 24.019 56.2387 24.1701C56.0507 24.2691 55.8983 24.3681 55.8983 24.3889C55.8983 24.415 55.8526 24.4358 55.7967 24.4358C55.7408 24.4358 55.6951 24.4566 55.6951 24.4879C55.6951 24.5139 55.6595 24.54 55.6189 24.54C55.5782 24.54 55.5427 24.5608 55.5427 24.5869C55.5427 24.6129 55.4969 24.6546 55.441 24.6702C55.3852 24.6859 55.3089 24.7327 55.2785 24.7692C55.2429 24.8005 55.1108 24.889 54.9838 24.962C54.5926 25.186 54.5113 25.2381 54.4046 25.3318C54.3487 25.3839 54.2725 25.4256 54.2369 25.4256C54.2013 25.4256 54.1708 25.4464 54.1708 25.4725C54.1708 25.4985 54.1048 25.5454 54.0184 25.5819C53.9371 25.6184 53.866 25.6652 53.866 25.6913C53.866 25.7173 53.8406 25.7382 53.8152 25.7382C53.7542 25.7382 53.3376 26.0091 53.3173 26.0612C53.3071 26.0872 53.2563 26.1028 53.2004 26.1028C53.1496 26.1028 53.1039 26.1237 53.1039 26.1549C53.1039 26.181 53.0683 26.207 53.0277 26.207C52.987 26.207 52.9515 26.2279 52.9515 26.2591C52.9515 26.2852 52.9159 26.3112 52.8752 26.3112C52.8346 26.3112 52.799 26.3321 52.799 26.3633C52.799 26.3894 52.7635 26.4154 52.7228 26.4154C52.6822 26.4154 52.6466 26.4362 52.6466 26.4675C52.6466 26.4935 52.6263 26.5196 52.5958 26.5196C52.5704 26.5196 52.3519 26.6498 52.1131 26.8061C51.8794 26.9624 51.6609 27.0926 51.6304 27.0926C51.605 27.0926 51.5796 27.1135 51.5796 27.1447C51.5796 27.1708 51.5441 27.1968 51.5034 27.1968C51.4628 27.1968 51.4272 27.2177 51.4272 27.2489C51.4272 27.275 51.3916 27.301 51.351 27.301C51.3103 27.301 51.2748 27.3219 51.2748 27.3531C51.2748 27.3792 51.2545 27.4052 51.2291 27.4052C51.1833 27.4052 50.3399 27.9314 50.2231 28.0303C50.1875 28.0564 50.1367 28.0824 50.1062 28.0824C50.0808 28.0824 50.0554 28.1033 50.0554 28.1345C50.0554 28.1606 50.0249 28.1866 49.9893 28.1866C49.9538 28.1866 49.8725 28.2335 49.8115 28.2908C49.7505 28.3481 49.6794 28.395 49.6489 28.395C49.6184 28.395 49.5473 28.4419 49.4863 28.4992C49.4254 28.5565 49.3441 28.6034 49.3085 28.6034C49.2729 28.6034 49.2425 28.6242 49.2425 28.6451C49.2425 28.6659 49.1154 28.7545 48.963 28.8378C48.8106 28.9264 48.6836 29.0097 48.6836 29.0306C48.6836 29.0566 48.6429 29.0722 48.5921 29.0722C48.5413 29.0722 48.4702 29.1191 48.4295 29.1764C48.3889 29.2337 48.3178 29.2806 48.2669 29.2806C48.2161 29.2806 48.1755 29.3015 48.1755 29.3327C48.1755 29.3588 48.1399 29.3848 48.0993 29.3848C48.0586 29.3848 48.0231 29.4056 48.0231 29.4317C48.0231 29.4577 47.9824 29.4942 47.9265 29.515C47.8757 29.5307 47.7792 29.588 47.7182 29.6453C47.5709 29.7755 47.515 29.7755 47.515 29.6505C47.515 29.5932 47.4947 29.5307 47.4642 29.515C47.4388 29.4994 47.4134 29.3692 47.4134 29.2285C47.4134 29.0879 47.393 28.9576 47.3626 28.942C47.3372 28.9264 47.3118 28.8326 47.3118 28.7336C47.3118 28.6346 47.2914 28.5409 47.2609 28.5252C47.2355 28.5096 47.2101 28.4471 47.2101 28.3898C47.2101 28.2231 46.8596 27.1864 46.697 26.8738C46.6716 26.8217 46.6512 26.7436 46.6512 26.7019C46.6512 26.6603 46.6309 26.6238 46.6004 26.6238C46.575 26.6238 46.5496 26.5769 46.5496 26.5196C46.5496 26.4623 46.5293 26.4154 46.4988 26.4154C46.4734 26.4154 46.448 26.3685 46.448 26.3112C46.448 26.2539 46.4277 26.207 46.3972 26.207C46.3718 26.207 46.3464 26.1601 46.3464 26.1028C46.3464 26.0455 46.3261 25.9986 46.2956 25.9986C46.2702 25.9986 46.2448 25.9778 46.2448 25.9518C46.2448 25.884 45.8739 25.2485 45.8282 25.2276C45.8027 25.2172 45.7875 25.1755 45.7875 25.1339C45.7875 25.0922 45.7672 25.0609 45.7367 25.0609C45.7113 25.0609 45.6859 25.0245 45.6859 24.9828C45.6859 24.9411 45.6656 24.9047 45.6351 24.9047C45.6097 24.9047 45.5843 24.8786 45.5843 24.8526C45.5843 24.8213 45.5284 24.738 45.4573 24.665C45.3861 24.5921 45.3302 24.5139 45.3302 24.4931C45.3302 24.4671 45.2693 24.3785 45.1931 24.2899C44.8222 23.8732 44.7205 23.7534 44.7205 23.7273C44.7205 23.6908 43.9838 22.9615 43.7857 22.8052C43.7095 22.7427 43.5672 22.6125 43.4707 22.5187C43.3792 22.4302 43.2776 22.352 43.2471 22.352C43.2217 22.352 43.1963 22.3364 43.1963 22.3103C43.1963 22.2895 43.1099 22.2166 43.0032 22.1436C42.9016 22.0707 42.8051 22.003 42.7898 21.9873C42.7187 21.9144 42.0226 21.4664 41.9769 21.4664C41.9515 21.4664 41.9261 21.4404 41.9261 21.4143C41.9261 21.383 41.8804 21.3622 41.8296 21.3622C41.7737 21.3622 41.7229 21.3466 41.7127 21.3205C41.7076 21.2997 41.4942 21.1747 41.2402 21.0496C40.8896 20.8725 40.7778 20.7892 40.7677 20.6954C40.7575 20.6329 40.727 20.5808 40.7016 20.5808C40.6762 20.5808 40.6559 20.5079 40.6559 20.4141C40.6559 20.3255 40.6356 20.1797 40.6051 20.0911C40.5797 20.0025 40.473 19.6483 40.3714 19.3045C40.2697 18.9606 40.163 18.6585 40.1427 18.6272C40.1173 18.6012 40.097 18.5387 40.097 18.4866C40.097 18.4345 40.0767 18.3928 40.0462 18.3928C40.0208 18.3928 39.9954 18.3355 39.9954 18.2626C39.9954 18.1896 39.9751 18.1323 39.9446 18.1323C39.9192 18.1323 39.8938 18.0854 39.8938 18.0281C39.8938 17.9708 39.8734 17.9239 39.843 17.9239C39.8176 17.9239 39.7921 17.8771 39.7921 17.8198C39.7921 17.7625 39.7718 17.7156 39.7413 17.7156C39.7159 17.7156 39.6905 17.6687 39.6905 17.6114C39.6905 17.5541 39.6702 17.5072 39.6397 17.5072C39.6143 17.5072 39.5889 17.4811 39.5889 17.4551C39.5889 17.4238 39.5076 17.2676 39.4111 17.1113C39.3146 16.955 39.2333 16.8091 39.2333 16.7883C39.2333 16.7674 39.1875 16.7153 39.1316 16.6737C39.0758 16.632 39.03 16.5695 39.03 16.5278C39.03 16.4549 38.7861 16.1944 38.5169 15.9808C38.3797 15.8766 38.2781 15.8402 38.1002 15.8402C37.9681 15.8402 37.8614 15.861 37.8614 15.8923Z" fill="white"/>
<path d="M40.2136 27.3269C40.1476 27.3946 40.0968 27.4884 40.0968 27.5352C40.0968 27.5769 40.0764 27.6134 40.046 27.6134C40.0206 27.6134 39.9952 27.7176 39.9952 27.8478C39.9952 27.978 40.0206 28.0822 40.046 28.0822C40.0764 28.0822 40.0968 28.15 40.0968 28.2281C40.0968 28.3062 40.1222 28.4 40.1527 28.4313C40.2898 28.5719 40.1831 29.5409 40.0358 29.5409C40.0104 29.5409 39.9952 29.5721 39.9952 29.6086C39.9952 29.6451 39.9443 29.7076 39.8885 29.7493C39.8275 29.7909 39.7513 29.8535 39.7157 29.8899C39.5887 30.0097 39.2788 30.166 39.1568 30.166C39.0857 30.166 39.0298 30.1869 39.0298 30.2181C39.0298 30.2442 38.9282 30.2702 38.8012 30.2702C38.6741 30.2702 38.5725 30.2442 38.5725 30.2181C38.5725 30.1869 38.5065 30.166 38.4201 30.166C38.3388 30.166 38.2677 30.14 38.2677 30.1139C38.2677 30.0827 38.2372 30.0618 38.2016 30.0618C38.0746 30.0618 37.8714 29.817 37.5818 29.3221C37.348 28.921 37.221 28.8376 36.84 28.8584C36.6825 28.8637 36.337 29.171 36.337 29.296C36.337 29.3429 36.3166 29.3846 36.2862 29.3846C36.2608 29.3846 36.2354 29.468 36.2354 29.5669C36.2354 29.6659 36.2608 29.7493 36.2862 29.7493C36.3166 29.7493 36.337 29.8066 36.337 29.8743C36.337 29.942 36.3878 30.1035 36.4538 30.2285C36.5859 30.4942 37.3074 31.26 37.4243 31.26C37.47 31.26 37.5056 31.2756 37.5056 31.3017C37.5056 31.3225 37.6478 31.4007 37.8256 31.4684C38.1051 31.583 38.2169 31.5986 38.8012 31.5986C39.3092 31.5986 39.5176 31.5778 39.7106 31.5049C39.9952 31.4007 40.2644 31.2548 40.2898 31.1923C40.3 31.1715 40.3406 31.1558 40.3813 31.1558C40.4219 31.1558 40.4524 31.1298 40.4524 31.1037C40.4524 31.0725 40.4778 31.0516 40.5083 31.0516C40.5388 31.0516 40.5896 31.0204 40.6252 30.9839C40.6607 30.9527 40.7522 30.8745 40.8233 30.8172C40.8995 30.7599 40.9605 30.6974 40.9605 30.6713C40.9605 30.6505 41.0062 30.5776 41.0621 30.5151C41.4686 30.067 41.621 29.6242 41.621 28.9157C41.621 28.1812 41.4889 27.7853 41.1129 27.3998C40.93 27.207 40.8995 27.1966 40.6201 27.2018C40.3762 27.2018 40.3051 27.2227 40.2136 27.3269Z" fill="white"/>
<path d="M33.446 31.6561C33.2631 31.6926 33.0395 31.7655 32.9481 31.8072C32.7042 31.927 32.313 32.3438 32.1707 32.6407C32.0589 32.87 32.0437 32.9689 32.0437 33.4586C32.0437 33.8337 32.064 34.0369 32.1098 34.0838C32.1402 34.115 32.1707 34.188 32.1707 34.2401C32.1707 34.2921 32.1961 34.3338 32.2215 34.3338C32.252 34.3338 32.2723 34.3703 32.2723 34.412C32.2723 34.4536 32.2977 34.4901 32.3231 34.4901C32.3536 34.4901 32.374 34.5162 32.374 34.5474C32.374 34.6412 32.882 35.1152 32.9837 35.1152C33.0141 35.1152 33.0345 35.1361 33.0345 35.1673C33.0345 35.1934 33.0802 35.2194 33.1361 35.2194C33.192 35.2194 33.2377 35.2403 33.2377 35.2715C33.2377 35.2976 33.2733 35.3236 33.3139 35.3236C33.3546 35.3236 33.4714 35.3601 33.5781 35.407C33.8728 35.5372 33.9592 35.5737 34.1776 35.6414C34.2894 35.6727 34.4215 35.7195 34.4672 35.7456C34.5181 35.7716 34.6248 35.7925 34.7111 35.7925C34.828 35.7925 34.8636 35.7716 34.8636 35.6883C34.8636 35.631 34.889 35.5841 34.9144 35.5841C34.9448 35.5841 34.9652 35.5268 34.9652 35.4539C34.9652 35.3809 34.9906 35.3236 35.016 35.3236C35.0465 35.3236 35.0668 35.2663 35.0668 35.1986C35.0668 35.1257 35.0922 35.0527 35.1176 35.0371C35.1481 35.0215 35.1684 34.959 35.1684 34.9017C35.1684 34.8496 35.1938 34.8027 35.2192 34.8027C35.2497 34.8027 35.27 34.735 35.27 34.6516C35.27 34.563 35.2903 34.4849 35.3157 34.4693C35.3411 34.4536 35.3716 34.3651 35.3869 34.2713C35.4021 34.1775 35.4428 33.9692 35.4732 33.8129C35.5393 33.5003 35.5088 32.8387 35.4224 32.7501C35.397 32.7241 35.3716 32.6564 35.3716 32.6043C35.3716 32.5522 35.3513 32.5105 35.3208 32.5105C35.2954 32.5105 35.27 32.4845 35.27 32.4532C35.27 32.3542 34.7365 31.8541 34.5333 31.7655C34.3758 31.6978 33.8067 31.5572 33.7763 31.578C33.7763 31.578 33.6238 31.6145 33.446 31.6561Z" fill="white"/>
<path d="M28.4566 33.344C28.1263 33.5212 28.0705 33.9483 28.3042 34.5058C28.4363 34.8235 28.4414 35.1413 28.3143 35.407C28.1975 35.6466 27.9892 35.8967 27.9079 35.8967C27.8774 35.8967 27.852 35.9123 27.852 35.9332C27.852 35.98 27.603 36.1051 27.5116 36.1051C27.476 36.1051 27.4455 36.1259 27.4455 36.1572C27.4455 36.1884 27.288 36.2093 27.0695 36.2093C26.8612 36.2093 26.6732 36.1832 26.658 36.1572C26.6427 36.1259 26.5869 36.1051 26.5361 36.1051C26.4852 36.1051 26.3735 36.0373 26.2922 35.954C26.1397 35.8081 25.8197 35.3601 25.8197 35.2976C25.8197 35.2299 25.4792 34.9277 25.3268 34.86C25.1947 34.8027 25.1337 34.8027 24.9712 34.8652C24.6816 34.9694 24.5495 35.1257 24.5139 35.4226C24.4834 35.6831 24.6206 36.2614 24.707 36.2614C24.7324 36.2614 24.7527 36.2978 24.7527 36.3395C24.7527 36.3812 24.7781 36.4176 24.8035 36.4176C24.834 36.4176 24.8543 36.4437 24.8543 36.4697C24.8543 36.501 24.9813 36.6521 25.1337 36.8083C25.2862 36.9646 25.4335 37.0949 25.464 37.0949C25.4894 37.0949 25.5148 37.1157 25.5148 37.1418C25.5148 37.2199 26.216 37.5168 26.5411 37.5689C26.907 37.6314 27.5725 37.595 27.9028 37.4908C28.1924 37.4022 28.6141 37.1886 28.6141 37.1365C28.6141 37.1157 28.6395 37.0949 28.6751 37.0949C28.7462 37.0949 29.3762 36.4489 29.3762 36.3708C29.3762 36.3395 29.4016 36.3134 29.427 36.3134C29.4575 36.3134 29.4778 36.2666 29.4778 36.2093C29.4778 36.152 29.5032 36.1051 29.5287 36.1051C29.5591 36.1051 29.5795 36.0582 29.5795 36.0009C29.5795 35.9436 29.5998 35.8967 29.6252 35.8967C29.6912 35.8967 29.742 35.6154 29.7674 35.0632C29.7878 34.5995 29.7471 34.3026 29.6252 34.0629C29.5998 34.0109 29.5795 33.9327 29.5795 33.891C29.5795 33.8494 29.5591 33.8129 29.5287 33.8129C29.5032 33.8129 29.4778 33.7868 29.4778 33.7608C29.4778 33.6774 29.1374 33.344 29.0511 33.344C29.0104 33.344 28.9596 33.318 28.9444 33.2919C28.8935 33.2086 28.6548 33.2346 28.4566 33.344Z" fill="white"/>
<path d="M40.427 34.787C40.3457 34.7974 40.2542 34.8339 40.2288 34.8599C40.1983 34.886 40.1272 34.9068 40.0662 34.9068C40.0002 34.9068 39.9341 34.9277 39.9189 34.9589C39.9037 34.985 39.8427 35.011 39.7919 35.011C39.7411 35.011 39.6903 35.0319 39.6801 35.0527C39.675 35.0735 39.5175 35.1673 39.3346 35.2559C39.1517 35.3444 38.7401 35.5476 38.4099 35.7091C38.0847 35.8706 37.7951 36.0008 37.7646 36.0008C37.7341 36.0008 37.7087 36.0217 37.7087 36.0529C37.7087 36.079 37.663 36.105 37.6071 36.105C37.5512 36.105 37.5055 36.1258 37.5055 36.1571C37.5055 36.1832 37.4598 36.2092 37.4039 36.2092C37.348 36.2092 37.3023 36.23 37.3023 36.2613C37.3023 36.2873 37.2565 36.3134 37.2007 36.3134C37.1448 36.3134 37.099 36.3342 37.099 36.3655C37.099 36.3915 37.0635 36.4176 37.0279 36.4176C36.9873 36.4176 36.845 36.4749 36.7129 36.5478C36.5808 36.6207 36.4436 36.6781 36.4081 36.6781C36.3674 36.6781 36.3369 36.6989 36.3369 36.7301C36.3369 36.7562 36.2912 36.7822 36.2353 36.7822C36.1794 36.7822 36.1337 36.8031 36.1337 36.8343C36.1337 36.8604 36.088 36.8864 36.0321 36.8864C35.9762 36.8864 35.9305 36.9073 35.9305 36.9385C35.9305 36.9646 35.8949 36.9906 35.8542 36.9906C35.8136 36.9906 35.7018 37.0375 35.6002 37.0948C35.4986 37.1521 35.3868 37.199 35.3512 37.199C35.3106 37.199 35.27 37.2198 35.2598 37.2407C35.2445 37.2771 34.5485 37.6366 34.1166 37.8293C34.0252 37.871 33.9489 37.9179 33.9489 37.9387C33.9489 37.9648 33.9032 37.9804 33.8473 37.9804C33.7914 37.9804 33.7457 38.0013 33.7457 38.0325C33.7457 38.0586 33.7 38.0846 33.6441 38.0846C33.5882 38.0846 33.5425 38.1055 33.5425 38.1367C33.5425 38.1628 33.512 38.1888 33.4764 38.1888C33.4358 38.1888 33.2021 38.293 32.9531 38.4232C32.7092 38.5535 32.4755 38.6577 32.4399 38.6577C32.4044 38.6577 32.3739 38.6785 32.3739 38.7098C32.3739 38.7358 32.3282 38.7618 32.2723 38.7618C32.2164 38.7618 32.1707 38.7827 32.1707 38.8139C32.1707 38.84 32.1249 38.866 32.069 38.866C32.0132 38.866 31.9674 38.8869 31.9674 38.9181C31.9674 38.9442 31.942 38.9702 31.9065 38.9702C31.876 38.9702 31.4543 39.1682 30.9716 39.413C30.4889 39.6579 30.0723 39.8558 30.0418 39.8558C30.0113 39.8558 29.9859 39.8767 29.9859 39.9079C29.9859 39.934 29.9402 39.96 29.8843 39.96C29.8284 39.96 29.7827 39.9809 29.7827 40.0121C29.7827 40.0382 29.7369 40.0642 29.6811 40.0642C29.6252 40.0642 29.5794 40.0851 29.5794 40.1163C29.5794 40.1424 29.5337 40.1684 29.4829 40.1684C29.427 40.1684 29.3762 40.184 29.3661 40.2101C29.3457 40.2518 28.3753 40.7414 28.3042 40.7414C28.2788 40.7414 28.2584 40.7623 28.2584 40.7935C28.2584 40.8196 28.2127 40.8456 28.1568 40.8456C28.1009 40.8456 28.0552 40.8665 28.0552 40.8977C28.0552 40.9238 28.0095 40.9498 27.9536 40.9498C27.8977 40.9498 27.852 40.9707 27.852 41.0019C27.852 41.028 27.8062 41.054 27.7504 41.054C27.6945 41.054 27.6487 41.0749 27.6487 41.1061C27.6487 41.1322 27.603 41.1582 27.5522 41.1582C27.4963 41.1582 27.4455 41.1738 27.4353 41.1947C27.4303 41.2207 27.1813 41.351 26.8866 41.4968C26.5919 41.6375 26.348 41.7729 26.3379 41.7938C26.3277 41.8198 26.2769 41.8354 26.221 41.8354C26.1702 41.8354 26.1245 41.8563 26.1245 41.8875C26.1245 41.9136 26.0788 41.9396 26.0229 41.9396C25.967 41.9396 25.9213 41.9605 25.9213 41.9917C25.9213 42.0178 25.8755 42.0438 25.8247 42.0438C25.7688 42.0438 25.718 42.0594 25.7079 42.0855C25.6875 42.1376 24.9153 42.5127 24.8238 42.5127C24.7882 42.5127 24.7527 42.5335 24.7527 42.5543C24.7527 42.5804 24.6409 42.6325 24.4986 42.669C24.3615 42.7054 24.2446 42.7575 24.2446 42.7836C24.2446 42.8044 24.1785 42.8252 24.0972 42.8252C24.0109 42.8252 23.9296 42.8461 23.9143 42.8773C23.8991 42.9034 23.828 42.9294 23.7619 42.9294C23.6959 42.9294 23.6247 42.9503 23.6095 42.9815C23.5942 43.0076 23.5028 43.0336 23.4063 43.0336C23.3097 43.0336 23.2183 43.0545 23.203 43.0857C23.1878 43.1118 23.0506 43.1378 22.9033 43.1378C22.7153 43.1378 22.5984 43.1691 22.5222 43.2264C22.4104 43.3254 22.1615 44.0338 22.1615 44.2526C22.1615 44.3256 22.1411 44.3985 22.1107 44.4141C22.0802 44.435 22.0598 44.7267 22.0598 45.1226C22.0598 45.5342 22.0802 45.7946 22.1107 45.7946C22.1411 45.7946 22.1615 45.8572 22.1615 45.9405C22.1615 46.1854 22.3444 46.6334 22.6746 47.196C22.8829 47.5555 23.6552 48.3473 23.8026 48.3473C23.8381 48.3473 23.8991 48.3942 23.9397 48.4515C23.9804 48.5088 24.0515 48.5557 24.1023 48.5557C24.1531 48.5557 24.1938 48.5765 24.1938 48.6078C24.1938 48.6338 24.2395 48.6599 24.2954 48.6599C24.3513 48.6599 24.397 48.6807 24.397 48.712C24.397 48.738 24.4377 48.7641 24.4885 48.7641C24.5393 48.7641 24.6003 48.7849 24.6307 48.8057C24.6968 48.8682 25.3268 49.061 25.6926 49.1339C26.1601 49.2225 27.3693 49.2537 27.7758 49.186C28.736 49.0245 29.1018 48.9516 29.1476 48.9099C29.173 48.8891 29.239 48.8682 29.2949 48.8682C29.4016 48.8682 29.7014 48.7797 29.8436 48.7068C29.8945 48.6807 29.9808 48.6599 30.0367 48.6599C30.0926 48.6599 30.1383 48.6338 30.1383 48.6078C30.1383 48.5765 30.2095 48.5557 30.2908 48.5557C30.3771 48.5557 30.4432 48.5296 30.4432 48.5036C30.4432 48.4723 30.4787 48.4515 30.5194 48.4515C30.56 48.4515 30.6363 48.4306 30.6871 48.4046C30.7785 48.3577 30.9665 48.2744 31.1697 48.2014C31.2307 48.1754 31.4085 48.092 31.561 48.0139C31.7134 47.941 31.8709 47.8784 31.9065 47.8784C31.9369 47.8784 31.9674 47.8524 31.9674 47.8263C31.9674 47.7951 32.0132 47.7743 32.069 47.7743C32.1249 47.7743 32.1707 47.7482 32.1707 47.7222C32.1707 47.6909 32.2164 47.6701 32.2723 47.6701C32.3282 47.6701 32.3739 47.6544 32.3739 47.6284C32.3739 47.6075 32.4247 47.5659 32.4907 47.5346C32.8108 47.3731 33.3138 47.0762 33.3291 47.0345C33.3392 47.0137 33.3697 46.9928 33.4002 46.9928C33.4256 46.9928 33.5476 46.9199 33.6695 46.8365C33.7914 46.748 33.9083 46.6803 33.9337 46.6803C33.9591 46.6803 34.0099 46.6334 34.0506 46.5761C34.0912 46.5188 34.1522 46.4719 34.1928 46.4719C34.2284 46.4719 34.3097 46.425 34.3706 46.3625C34.4672 46.2635 34.7009 46.0916 34.96 45.9249C35.0007 45.8936 35.0972 45.8103 35.1734 45.7269C35.2496 45.6488 35.336 45.5863 35.3614 45.5863C35.3919 45.5863 35.4224 45.5654 35.4325 45.5446C35.4427 45.5238 35.6205 45.3623 35.8288 45.1956C36.0372 45.0236 36.3014 44.7892 36.4182 44.6746C37.6224 43.4816 38.3032 42.7627 38.5877 42.3876C38.6487 42.3043 38.7757 42.1584 38.8672 42.0647C38.9535 41.9709 39.0298 41.8719 39.0298 41.8459C39.0298 41.825 39.0704 41.7573 39.1212 41.7C39.1669 41.6479 39.299 41.4812 39.4108 41.3405C39.5226 41.1947 39.6293 41.0696 39.6547 41.0644C39.675 41.054 39.6903 41.0176 39.6903 40.9811C39.6903 40.9446 39.7614 40.8404 39.8427 40.7519C39.9291 40.6581 39.9951 40.5747 39.9951 40.5539C39.9951 40.5383 40.1424 40.3039 40.3254 40.0382C40.5083 39.7673 40.6556 39.5224 40.6556 39.4912C40.6556 39.4651 40.681 39.4391 40.7064 39.4391C40.7369 39.4391 40.7572 39.4026 40.7572 39.3609C40.7572 39.3193 40.7826 39.2828 40.808 39.2828C40.8385 39.2828 40.8588 39.2463 40.8588 39.2047C40.8588 39.163 40.8842 39.1265 40.9097 39.1265C40.9401 39.1265 40.9605 39.09 40.9605 39.0484C40.9605 39.0067 40.9859 38.9702 41.0113 38.9702C41.0418 38.9702 41.0621 38.9233 41.0621 38.8712C41.0621 38.8139 41.0773 38.7618 41.1027 38.7514C41.123 38.741 41.2297 38.5483 41.3415 38.319C41.4533 38.0898 41.56 37.8919 41.5803 37.8867C41.6057 37.8762 41.621 37.8241 41.621 37.7668C41.621 37.7147 41.6464 37.6679 41.6718 37.6679C41.7023 37.6679 41.7226 37.621 41.7226 37.5637C41.7226 37.5064 41.748 37.4595 41.7734 37.4595C41.8039 37.4595 41.8242 37.4022 41.8242 37.3292C41.8242 37.2563 41.8496 37.199 41.875 37.199C41.9055 37.199 41.9258 37.1625 41.9258 37.1209C41.9258 37.0792 41.9461 37.001 41.9715 36.9489C42.0782 36.7354 42.129 36.4645 42.129 36.1311C42.129 35.782 42.0478 35.4278 41.9665 35.4278C41.9461 35.4278 41.9258 35.3913 41.9258 35.3496C41.9258 35.2402 41.7429 35.0631 41.4787 34.9172C41.2602 34.7922 40.7521 34.7297 40.427 34.787Z" fill="white"/>
</svg>
