<svg width="40" height="40" viewBox="0 0 40 40" fill="none" xmlns="http://www.w3.org/2000/svg">
<rect width="40" height="40" rx="20" fill="#5256E0" fill-opacity="0.1"/>
<path d="M29.2171 15.7541C28.7116 14.6311 27.986 13.623 27.0647 12.7541C26.1434 11.8934 25.0753 11.2131 23.8849 10.7377C22.6538 10.2459 21.3493 10 20.004 10C18.6587 10 17.3542 10.2459 16.1231 10.7377C14.9327 11.2131 13.8646 11.8852 12.9433 12.7541C12.022 13.623 11.2964 14.6311 10.7909 15.7541C10.2691 16.918 10 18.1639 10 19.4426C10 21.6803 10.8316 23.8279 12.3563 25.5328L11.5409 30L15.8785 28.0574C17.1748 28.6148 18.5527 28.8934 19.9958 28.8934C21.3411 28.8934 22.6456 28.6475 23.8768 28.1557C25.0671 27.6803 26.1352 27.0082 27.0565 26.1393C27.9778 25.2705 28.7034 24.2623 29.2089 23.1393C29.7307 21.9754 29.9998 20.7295 29.9998 19.4508C30.008 18.1639 29.7389 16.9262 29.2171 15.7541Z" stroke="#5256E0" stroke-width="1.4"/>
<path d="M24.0643 21.3277C23.6403 21.1146 23.3305 20.9834 23.1104 20.9015C22.9718 20.8523 22.6456 20.7047 22.5315 20.7949C22.1728 21.09 21.7896 21.9261 21.3819 22.0818C20.3709 21.8851 19.4333 21.1884 18.6995 20.4752C18.3734 20.1638 17.77 19.2785 17.6396 19.0408C17.6151 18.7949 18.0554 18.467 18.1532 18.2785C18.6587 17.7047 18.2755 17.3441 18.2103 17.1064C18.0962 16.8605 17.9005 16.4179 17.7293 16.0572C17.5825 15.8195 17.5499 15.467 17.289 15.3359C16.1801 14.7621 15.5442 15.9097 15.2833 16.508C13.7098 20.3195 23.1674 27.5736 25.0916 22.5736C25.1894 22.1392 25.1487 21.9752 25.0019 21.7785C24.7084 21.5736 24.366 21.4834 24.0643 21.3277Z" stroke="#5256E0" stroke-width="1.2"/>
</svg>
